<svg id="filled_outline" height="512" viewBox="0 0 512 512" width="512" xmlns="http://www.w3.org/2000/svg" data-name="filled outline"><path d="m222 361.919h-14l-24 .361v-48.361h48v38a10 10 0 0 1 -10 10z" fill="#ea9d2d"/><path d="m142 312-38.186-.124.186-47.876h48v38a10 10 0 0 1 -10 10z" fill="#ea9d2d"/><g fill="#277baa"><path d="m80 152-14.002 21.003 26.699 24.025 19.303-13.028z"/><path d="m432 152 13.917 18.229-26.67 28.538-19.247-14.767z"/><path d="m296.254 184h112v32h-112z"/></g><path d="m424 464h-48.412a8 8 0 0 1 -7.97-7.307l-15.364-176.693-15.365 176.693a8 8 0 0 1 -7.97 7.307h-48.411a8 8 0 0 1 -8-8.25l7.257-232.25a16 16 0 0 1 15.997-15.5h112.984a16 16 0 0 1 15.992 15.5l7.262 232.25a8 8 0 0 1 -8 8.25z" fill="#4799cf"/><path d="m280.254 464h48v24h-48z" fill="#277baa"/><path d="m376.254 464h48v24h-48z" fill="#277baa"/><path d="m380.48 280 1 16h-27.84l1.39 16h27.45l1 16h-27.05l1.39 16h26.66l1 16h-26.27l1.39 16h25.88l1 16h-25.49l1.39 16h25.1l1 16h-24.7l1.39 16h24.31l1.51 24 .03.5a7.99 7.99 0 0 0 7.97 7.5 4.349 4.349 0 0 0 .51-.02 7.992 7.992 0 0 0 7.5-7.98c0-.17-.01-.33-.02-.5l-1.46-23.5h24.99l-.5-16h-25.49l-1-16h25.99l-.5-16h-26.49l-1-16h26.99l-.5-16h-27.49l-1-16h27.99l-.5-16h-28.49l-1-16h28.99l-.5-16h-29.49l-1-16h29.99l-.5-16h-30.49l-1-16h30.99l-.5-16h-31.49l-1.51-24h-16.01c0 .17.01.33.02.5l1.46 23.5h-17.23v-24h-16v24h-17.73l1.46-23.5c.01-.17.02-.33.02-.5h-16.01l-1.51 24h-30.98l-.5 16h30.48l-1 16s-29.42.07-29.98.19l-.49 15.49c.71.21 29.47.32 29.47.32l-1 16h-28.98l-.5 16h28.48l-1 16h-27.98l-.5 16h27.48l-1 16h-26.98l-.5 16h26.48l-1 16h-25.98l-.5 16h25.48l-1 16h-24.98l-.5 16h24.48l-1.46 23.5c-.01.17-.02.33-.02.5a7.992 7.992 0 0 0 7.5 7.98 4.349 4.349 0 0 0 .51.02 7.99 7.99 0 0 0 7.97-7.5l.03-.5 1.51-24h24.82l1.39-16h-25.21l1-16h25.6l1.39-16h-25.99l1-16h26.38l1.4-16h-26.78l1-16h27.17l1.39-16h-27.56l1-16h27.95l1.39-16h-28.34l1-16zm-36.23-16h-19.73l1-16h18.73zm16 0v-16h18.23l1 16z" fill="#277baa"/><path d="m208 349.92v92l-31.78 37.08a25.783 25.783 0 0 1 -39.38-33.29l23.16-27.79v-68a4 4 0 0 1 4-4h40a4 4 0 0 1 4 4z" fill="#fbb540"/><path d="m192 377.92a8 8 0 0 1 -8 8h-24v-16h24a8 8 0 0 1 8 8z" fill="#ea9d2d"/><path d="m128 300v92l-31.78 37.08a25.783 25.783 0 0 1 -39.38-33.29l23.16-27.79v-68a4 4 0 0 1 4-4h40a4 4 0 0 1 4 4z" fill="#fbb540"/><path d="m112 328a8 8 0 0 1 -8 8h-24v-16h24a8 8 0 0 1 8 8z" fill="#ea9d2d"/><path d="m432 152-32 32-72-72v88a16 16 0 0 1 -16 16h-112a16 16 0 0 1 -16-16v-88l-72 72-32-32 92.59-113.96a38.016 38.016 0 0 1 29.5-14.04h107.82a38.016 38.016 0 0 1 29.5 14.04z" fill="#ebebeb"/><path d="m240 24v24l-20.55 13.7a85.365 85.365 0 0 0 -35.45 50.3l-72 72-32-32 92.59-113.96a38.016 38.016 0 0 1 29.5-14.04z" fill="#4799cf"/><path d="m432 152-32 32-72-72a85.365 85.365 0 0 0 -35.45-50.3l-20.55-13.7-.69-24h38.6a38.016 38.016 0 0 1 29.5 14.04z" fill="#4799cf"/><path d="m200 216h112v24h-112z" fill="#4799cf"/><path d="m232 24h48a0 0 0 0 1 0 0v8a24 24 0 0 1 -24 24 24 24 0 0 1 -24-24v-8a0 0 0 0 1 0 0z" fill="#277baa"/><path d="m453.657 181.657a8 8 0 0 0 1-10.095s-16.282-24.4-16.447-24.607l-92.6-113.963a45.813 45.813 0 0 0 -35.697-16.992h-107.826a45.813 45.813 0 0 0 -35.7 16.992l-92.596 113.963q-.247.3-.46.626l-15.987 23.981a8 8 0 0 0 1 10.095l24 24a8 8 0 0 0 10.095 1l23.936-15.957c.019-.013 1.176-.934 1.282-1.041l58.343-58.346v68.687a24.039 24.039 0 0 0 16 22.624v17.376a8 8 0 0 0 8 8h71l-5.621 179.931a7.948 7.948 0 0 0 -.241 7.705l-.62 19.866a15.872 15.872 0 0 0 4.506 11.634 16.072 16.072 0 0 0 3.234 2.557v18.307a8 8 0 0 0 8 8h48a8 8 0 0 0 8-8v-17.755a15.907 15.907 0 0 0 8.6-12.861l7.4-85.031 7.4 85.031a15.913 15.913 0 0 0 8.6 12.859v17.757a8 8 0 0 0 8 8h48a8 8 0 0 0 8-8v-18.306a16.117 16.117 0 0 0 3.236-2.558 15.873 15.873 0 0 0 4.506-11.636l-7.26-232.25a23.943 23.943 0 0 0 -6.374-15.61 7.971 7.971 0 0 0 3.295-1.983zm-165.657-149.657h21.913a29.876 29.876 0 0 1 23.287 11.082l88.045 108.363-21.245 21.241-64.85-64.851a93.094 93.094 0 0 0 -38.158-52.788l-12.567-8.378a31.792 31.792 0 0 0 3.575-14.669zm115.516 360-1-16h18.984l.5 16zm18.984 16 .5 16h-17.484l-1-16zm-20.984-48-1-16h19.984l.5 16zm-2-32-1-16h20.984l.5 16zm-2-32-1-16h21.984l.5 16zm-2-32-1-16h22.984l.5 16zm-2-32-1-16h16.234a7.963 7.963 0 0 1 7.994 7.75l.256 8.25zm-12.83-56h-44.686v-44.687zm-108.686-144a16 16 0 0 1 -32 0zm-182.98 157.706-14.726-14.726 6.949-10.423 18.2 18.2zm87.83-81.871-64.85 64.851-21.241-21.241 88.041-108.363a29.876 29.876 0 0 1 23.287-11.082h21.913a31.792 31.792 0 0 0 3.575 14.669l-12.567 8.378a93.094 93.094 0 0 0 -38.158 52.788zm15.15 92.165v-86.931a77.152 77.152 0 0 1 31.883-44.71l14.5-9.665a31.906 31.906 0 0 0 35.238 0l14.5 9.665a77.152 77.152 0 0 1 31.879 44.71v86.931a8.009 8.009 0 0 1 -8 8h-112a8.009 8.009 0 0 1 -8-8zm90.505 192 .5-16h18.479l-1 16zm16.979 16-1 16h-16.978l.5-16zm-15.979-48 .5-16h19.479l-1 16zm1-32 .5-16h20.48l-1 16zm1-32 .5-16h21.48l-1 16zm1-32 .5-16h22.48l-1 16zm-78.505-32v-8h96v8zm73.006 208h16.478l-1 16h-15.978zm39.248 40h-32v-8h32zm8.666-24h-16.4l1-16h16.795zm2.782-32h-17.186l1-16h17.578zm2.782-32h-17.969l1-16h18.36zm2.781-32h-18.75l1-16h19.141zm2.782-32h-19.532l1-16h19.923zm2.782-32h-20.314l1-16h20.705zm1.425-32h-19.739l1-16h18.739zm0-32h-17.739l.849-13.58a24.26 24.26 0 0 0 2.505-2.42h14.385zm-8.254-32v-8h61.578l2.672 1.781v6.219zm41.484 32h-17.23v-16h16.23zm-17.23 16h18.23l1 16h-19.23zm.026 32h20.2l1 16h-19.808zm2.784 32h19.42l1 16h-19.028zm4.175 48-1.392-16h18.637l1 16zm2.784 32-1.392-16h17.853l1 16zm1.392 16h17.069l1 16h-16.678zm4.835 48h-.66l-1.39-16h16.286l1 16zm40 24h-32v-8h32zm-8.738-24-1-16h16.988l.5 16zm15.468-266.294-10.242-6.829-.036-.023-.145-.1 18.2-18.2 6.949 10.423z"/><path d="m182.294 484.2 31.78-37.077a8 8 0 0 0 1.926-5.204v-72h6a18.021 18.021 0 0 0 18-18v-38a8 8 0 0 0 -8-8h-48a8 8 0 0 0 -8 8v24h-12a12.013 12.013 0 0 0 -12 12v65.1l-21.307 25.57a33.781 33.781 0 0 0 51.6 43.61zm9.706-162.281h32v30a2 2 0 0 1 -2 2h-6v-8a8 8 0 0 0 -8-8h-16zm-46.464 154.181a17.783 17.783 0 0 1 -2.552-25.269l23.162-27.794a8 8 0 0 0 1.854-5.118v-32h16a8 8 0 0 0 0-16h-16v-16h32v85.041l-29.854 34.829a17.711 17.711 0 0 1 -24.61 2.311z"/><path d="m43.034 415.694a33.746 33.746 0 0 0 59.26 18.589l31.78-37.077a8 8 0 0 0 1.926-5.206v-72h6a18.021 18.021 0 0 0 18-18v-38a8 8 0 0 0 -8-8h-48a8 8 0 0 0 -8 8v24h-12a12.013 12.013 0 0 0 -12 12v65.1l-21.307 25.573a33.523 33.523 0 0 0 -7.659 25.021zm68.966-143.694h32v30a2 2 0 0 1 -2 2h-6v-8a8 8 0 0 0 -8-8h-16zm-49.016 128.915 23.162-27.794a8 8 0 0 0 1.854-5.121v-32h16a8 8 0 0 0 0-16h-16v-16h32v85.041l-29.854 34.829a17.782 17.782 0 0 1 -27.162-22.955z"/></svg>