<svg id="filled_outline" height="512" viewBox="0 0 512 512" width="512" xmlns="http://www.w3.org/2000/svg" data-name="filled outline"><path d="m88 360h352v96h-352z" fill="#c38325"/><circle cx="200" cy="328" fill="#fdc9a6" r="32"/><path d="m232 328a32 32 0 0 1 -32 32v-10a14 14 0 0 1 14-14h10v-23.55a16.865 16.865 0 0 1 .7-4.79 31.8 31.8 0 0 1 7.3 20.34z" fill="#fdc9a6"/><path d="m216 292a20 20 0 0 1 -20 20h-20v17.027a30.973 30.973 0 0 1 -30.973 30.973h-33.027a24 24 0 0 1 -24-24 24 24 0 0 1 24-24h21.927a10.073 10.073 0 0 0 10.073-10.073 29.927 29.927 0 0 1 29.926-29.927h22.074a20 20 0 0 1 20 20z" fill="#744630"/><path d="m232 328a32 32 0 0 1 -32 32v-10a14 14 0 0 1 14-14h10v-23.55a16.865 16.865 0 0 1 .7-4.79 31.8 31.8 0 0 1 7.3 20.34z" fill="#f6bb92"/><path d="m72 272a16 16 0 0 1 16 16v200a0 0 0 0 1 0 0h-32a0 0 0 0 1 0 0v-200a16 16 0 0 1 16-16z" fill="#c38325"/><path d="m456 328a16 16 0 0 1 16 16v144a0 0 0 0 1 0 0h-32a0 0 0 0 1 0 0v-144a16 16 0 0 1 16-16z" fill="#c38325"/><path d="m88 360h352v64h-352z" fill="#fbb540"/><g fill="#fd9226"><path d="m392 168h-40a8 8 0 0 1 -6.146-13.122l29.065-34.878h-22.919a8 8 0 0 1 0-16h40a8 8 0 0 1 6.146 13.122l-29.065 34.878h22.919a8 8 0 0 1 0 16z"/><path d="m320 216h-26.667a8 8 0 0 1 -6.146-13.122l15.733-18.878h-9.587a8 8 0 0 1 0-16h26.667a8 8 0 0 1 6.146 13.122l-15.732 18.878h9.586a8 8 0 0 1 0 16z"/><path d="m264 256h-24a8 8 0 0 1 -5.657-13.657l10.343-10.343h-4.686a8 8 0 0 1 0-16h24a8 8 0 0 1 5.657 13.657l-10.343 10.343h4.686a8 8 0 0 1 0 16z"/></g><circle cx="256" cy="80" fill="#c0f5f9" r="56"/><path d="m272 104a7.976 7.976 0 0 1 -5.657-2.343l-16-16a8 8 0 0 1 -2.343-5.657v-24a8 8 0 0 1 16 0v20.687l13.657 13.656a8 8 0 0 1 -5.657 13.657z" fill="#8aced8"/><path d="m247.227 296.018c-8.606.406-15.227 7.819-15.227 16.434v23.548h-10a14 14 0 0 0 -14 14v10h34a22 22 0 0 0 22-22v-26a16 16 0 0 0 -16.773-15.982z" fill="#fdc9a6"/><path d="m88 424h352v16h-352z" fill="#ac7421"/><path d="m256 360v36a4 4 0 0 0 4 4h172v24h8v-64z" fill="#ea9d2d"/><path d="m440 392h-172a4 4 0 0 1 -4-4v-100h134.181a41.819 41.819 0 0 1 41.819 41.819z" fill="#eaeae8"/><path d="m360 288h32v104h-32z" fill="#04957c"/><path d="m320 288h16v104h-16z" fill="#04957c"/><path d="m56 496h32a8 8 0 0 0 8-8v-24h336v24a8 8 0 0 0 8 8h32a8 8 0 0 0 8-8v-144a23.985 23.985 0 0 0 -32.684-22.367 49.891 49.891 0 0 0 -49.135-41.633h-134.181a8 8 0 0 0 -8 8v1.361a23.878 23.878 0 0 0 -28.209 9.868 39.9 39.9 0 0 0 -4.057-3.415 27.966 27.966 0 0 0 -27.734-31.814h-22.074a37.97 37.97 0 0 0 -37.926 37.926 2.076 2.076 0 0 1 -2.074 2.074h-21.926a31.793 31.793 0 0 0 -16 4.305v-20.305a24 24 0 0 0 -48 0v200a8 8 0 0 0 8 8zm392-152a8 8 0 0 1 16 0v136h-16zm-48-47.95a33.861 33.861 0 0 1 32 33.769v54.181h-32zm-32-.05h16v88h-16zm-32 0h16v88h-16zm-64 0h48v88h-48zm-41.035 48h.031.023.981a8 8 0 0 0 8-8v-23.548a8.328 8.328 0 0 1 7.6-8.443 8 8 0 0 1 8.4 7.991v26a14.015 14.015 0 0 1 -14 14h-26v-2a6.006 6.006 0 0 1 6-6zm-14.23-33.2a23.9 23.9 0 0 1 7.265 17.2h-2a22.025 22.025 0 0 0 -22 22v2a24.085 24.085 0 0 1 -18.639-8.9 38.767 38.767 0 0 0 2.639-14.073v-9.027h12a27.933 27.933 0 0 0 20.735-9.2zm-104.735 9.2h21.926a18.1 18.1 0 0 0 18.074-18.074 21.951 21.951 0 0 1 21.926-21.926h22.074a12 12 0 0 1 0 24h-20a8 8 0 0 0 -8 8v17.027a23 23 0 0 1 -22.973 22.973h-33.027a16 16 0 0 1 0-32zm-16 48h160v24a8 8 0 0 0 8 8h168v16h-336zm0 64h336v16h-336zm-32-144a8 8 0 0 1 16 0v192h-16z"/><path d="m352 120h22.919l-29.065 34.878a8 8 0 0 0 6.146 13.122h40a8 8 0 0 0 0-16h-22.919l29.065-34.878a8 8 0 0 0 -6.146-13.122h-40a8 8 0 0 0 0 16z"/><path d="m293.333 168a8 8 0 0 0 0 16h9.587l-15.732 18.878a8 8 0 0 0 6.145 13.122h26.667a8 8 0 0 0 0-16h-9.586l15.732-18.878a8 8 0 0 0 -6.146-13.122z"/><path d="m232.609 251.062a8 8 0 0 0 7.391 4.938h24a8 8 0 0 0 0-16h-4.686l10.343-10.343a8 8 0 0 0 -5.657-13.657h-24a8 8 0 0 0 0 16h4.686l-10.343 10.343a8 8 0 0 0 -1.734 8.719z"/><path d="m256 144a64 64 0 1 0 -64-64 64.072 64.072 0 0 0 64 64zm0-112a48 48 0 1 1 -48 48 48.055 48.055 0 0 1 48-48z"/><path d="m266.343 101.657a8 8 0 0 0 11.314-11.314l-13.657-13.656v-20.687a8 8 0 0 0 -16 0v24a8 8 0 0 0 2.343 5.657z"/></svg>