<svg id="Layer_5" enable-background="new 0 0 64 64" height="512" viewBox="0 0 64 64" width="512" xmlns="http://www.w3.org/2000/svg"><g><g><g><path d="m12 30.71c0 .19.02.39.05.58l.31 1.71h-3.36c-1.1 0-2-.9-2-2 0-.55.22-1.05.59-1.41.36-.37.86-.59 1.41-.59h3.24c-.15.39-.24.81-.24 1.25z" fill="#ff826e"/></g><g><path d="m31 29c0 1.31.85 2.41 2.02 2.82-.01.06-.02.12-.02.18 0 .35.06.69.18 1h-14.18l-.55-3.29c-.04-.25-.11-.49-.21-.71z" fill="#ff826e"/></g><g><circle cx="4" cy="24" fill="#e6e9ed" r="2"/></g><g><circle cx="4" cy="4" fill="#e6e9ed" r="2"/></g><g><circle cx="14" cy="20" fill="#e6e9ed" r="2"/></g><g><circle cx="16" cy="11" fill="#e6e9ed" r="2"/></g><g><circle cx="60" cy="6" fill="#e6e9ed" r="2"/></g><g><circle cx="59" cy="31" fill="#e6e9ed" r="2"/></g><g><path d="m51.96 11.57c1.91 1.5 3.04 3.39 3.04 5.43 0 1.43-.56 2.78-1.55 3.99-.17-.3-.38-.57-.62-.82-.73-.72-1.73-1.17-2.83-1.17v-1.51c0-.89-.58-1.66-1.43-1.92l-8.57-2.57c0-4.49-2.2-8.35-5.35-10.06 1.61-.6 3.43-.94 5.35-.94 6.63 0 12 4.03 12 9 0 .2-.02.38-.04.57z" fill="#ffeaa7"/></g><g><path d="m28.04 11.57c-.02-.19-.04-.37-.04-.57 0-3.53 2.71-6.59 6.65-8.06 3.15 1.71 5.35 5.57 5.35 10.06l-8.57 2.57c-.85.26-1.43 1.03-1.43 1.92v1.51c-1.48 0-2.76.8-3.45 1.99-.99-1.21-1.55-2.56-1.55-3.99 0-2.04 1.13-3.92 3.04-5.42z" fill="#ffeaa7"/></g><g><path d="m44.59 46h2.57c2.12 0 3.84 1.72 3.84 3.84 0 .11 0 .21-.01.32l-.99 11.84h-5v-13-1.31c0-.61-.15-1.18-.41-1.69z" fill="#b4dd7f"/></g><g><path d="m45 49v13h-14l-1.96-12.72c-.03-.19-.04-.37-.04-.56v-.72-.31c0-2.04 1.65-3.69 3.69-3.69h8.62c1.43 0 2.67.81 3.28 2 .26.51.41 1.08.41 1.69z" fill="#a0d468"/></g><g><path d="m12.24 29c.17-.39.41-.75.71-1.05.59-.59 1.4-.95 2.3-.95 1.34 0 2.5.81 2.99 2 .1.22.17.46.21.71l.55 3.29.71.35c.79.4 1.29 1.21 1.29 2.1 0 .36-.08.72-.25 1.04l-.75 1.51.78 4.68c.13.76.79 1.32 1.56 1.32.42 0 .83-.17 1.12-.46l2.27-2.27c1.47-1.47 3.39-2.41 5.45-2.67l4.82-.6.47-3.04v-.01c.08-.01.15-.02.23-.04.55.66 1.37 1.09 2.3 1.09.35 0 .69-.07 1-.18.31.11.65.18 1 .18.93 0 1.75-.43 2.3-1.09.08.02.15.03.23.04v.01l.47 3.04 4.82.6c2.06.26 3.98 1.2 5.45 2.67 1.75 1.75 2.73 4.12 2.73 6.6v14.13h-7l.99-11.84c.01-.11.01-.21.01-.32 0-2.12-1.72-3.84-3.84-3.84h-2.57c-.61-1.19-1.85-2-3.28-2h-8.62c-2.04 0-3.69 1.65-3.69 3.69v.31l-3.12 3.12c-1.21 1.21-2.83 1.88-4.53 1.88-3.1 0-5.75-2.21-6.31-5.26l-2.68-14.74-.31-1.71c-.03-.19-.05-.39-.05-.58v-.46c0-.44.09-.86.24-1.25z" fill="#f0d0b4"/></g><g><path d="m54 23c0 2.21-1.79 4-4 4h-.46c.3-.95.46-1.95.46-3v-5c1.1 0 2.1.45 2.83 1.17.24.25.45.52.62.82.35.59.55 1.28.55 2.01z" fill="#f0d0b4"/></g><g><path d="m34 26c-1.47 0-2.69 1.05-2.95 2.44-.23-.46-.42-.94-.58-1.44-.3-.95-.47-1.95-.47-3v-5-1.51c0-.89.58-1.66 1.43-1.92l8.57-2.57 8.57 2.57c.85.26 1.43 1.03 1.43 1.92v1.51 5c0 1.05-.16 2.05-.46 3-.51 1.63-1.43 3.08-2.64 4.23-.2-.74-.67-1.36-1.3-1.76.25-.44.4-.93.4-1.47 0-1.66-1.34-3-3-3-.94 0-1.78.44-2.33 1.12-.21-.07-.43-.12-.67-.12-.33 0-.63.09-.9.22-.34-.13-.71-.22-1.1-.22-.77 0-1.47.3-2 .78-.53-.48-1.23-.78-2-.78z" fill="#f0d0b4"/></g><g><path d="m30.47 27h-.01-.46c-1.1 0-2.1-.45-2.83-1.17-.72-.73-1.17-1.73-1.17-2.83 0-.73.2-1.42.55-2.01.69-1.19 1.97-1.99 3.45-1.99v5c0 1.05.17 2.05.47 3z" fill="#f0d0b4"/></g><g><path d="m36.47 34.95c-.15.03-.31.05-.47.05-1.31 0-2.42-.83-2.82-2-.12-.31-.18-.65-.18-1 0-.06.01-.12.02-.18-1.17-.41-2.02-1.51-2.02-2.82 0-.19.02-.38.05-.56.26-1.39 1.48-2.44 2.95-2.44.77 0 1.47.3 2 .78.53-.48 1.23-.78 2-.78.39 0 .76.09 1.1.22.27-.13.57-.22.9-.22.24 0 .46.05.67.12.55-.68 1.39-1.12 2.33-1.12 1.66 0 3 1.34 3 3 0 .54-.15 1.03-.4 1.47.63.4 1.1 1.02 1.3 1.76.06.24.1.5.1.77 0 1.66-1.34 3-3 3-.16 0-.32-.02-.47-.05-.08-.01-.15-.02-.23-.04-.55.66-1.37 1.09-2.3 1.09-.35 0-.69-.07-1-.18-.31.11-.65.18-1 .18-.93 0-1.75-.43-2.3-1.09-.08.02-.15.03-.23.04z" fill="#e6e9ed"/></g></g><g><path d="m36 19c-1.654 0-3 1.346-3 3h2c0-.551.449-1 1-1s1 .449 1 1h2c0-1.654-1.346-3-3-3z"/><path d="m44 19c-1.654 0-3 1.346-3 3h2c0-.551.449-1 1-1s1 .449 1 1h2c0-1.654-1.346-3-3-3z"/><path d="m48.945 37.61-4.073-.509-.181-1.166c1.879-.314 3.309-1.966 3.309-3.935 0-.149-.027-.291-.043-.437 1.006-1.055 1.778-2.268 2.292-3.588 2.639-.133 4.751-2.303 4.751-4.975 0-.672-.137-1.312-.379-1.898.904-1.276 1.379-2.683 1.379-4.102 0-2.155-1.109-4.178-3.01-5.837.003-.055.01-.108.01-.163 0-5.514-5.832-10-13-10s-13 4.486-13 10c0 .045.006.09.008.135-1.921 1.67-3.008 3.708-3.008 5.865 0 1.419.475 2.826 1.379 4.102-.242.586-.379 1.226-.379 1.898 0 2.676 2.119 4.85 4.764 4.976.003.008.007.016.01.024h-10.93c-.755-1.212-2.086-2-3.596-2-1.515 0-2.837.803-3.59 2h-2.658c-1.654 0-3 1.346-3 3s1.346 3 3 3h2.529l2.531 13.919c.641 3.523 3.706 6.081 7.287 6.081 1.978 0 3.838-.771 5.237-2.169l1.595-1.595 1.963 12.764h27.858v-15.132c0-2.761-1.075-5.357-3.028-7.31-1.617-1.617-3.757-2.663-6.027-2.948zm-4.945-3.61c-.133 0-.279-.021-.46-.065l-.609-.15-.4.482c-.524.633-1.282.931-2.197.607l-.334-.119-.333.118c-.914.325-1.672.026-2.197-.607l-.4-.482-.609.15c-.182.045-.328.066-.461.066-1.103 0-2-.897-2-1.965l.065-.907-.718-.25c-.805-.281-1.347-1.036-1.347-1.878 0-1.103.897-2 2-2 .621 0 1.066.284 1.331.521l.669.603.669-.602c.366-.329 1.148-.736 2.059-.371l.421.169.404-.206c.254-.129.483-.157.783-.048l.672.242.447-.558c.381-.477.945-.75 1.545-.75 1.103 0 2 .897 2 2 0 .333-.091.661-.27.977l-.469.828.804.51c.585.371.935 1.001.935 1.685 0 1.103-.897 2-2 2zm-13.868-4c.204.78.645 1.474 1.25 2h-11.535l-.334-2zm-8.485 6.942c.231-.462.353-.979.353-1.495 0-.514-.12-1.004-.332-1.447h10.873c.58 1.009 1.584 1.733 2.768 1.932l-.182 1.169-4.073.509c-2.27.284-4.41 1.331-6.027 2.948l-2.271 2.271c-.314.313-.918.12-.992-.318l-.726-4.354zm27.353-12.942c0 2.026-.674 3.935-1.902 5.505-.092-.113-.175-.233-.279-.336.12-.38.181-.771.181-1.169 0-2.206-1.794-4-4-4-.991 0-1.929.366-2.656 1.021-.436-.052-.864-.006-1.277.133-1.058-.307-2.155-.143-3.067.391-.607-.355-1.295-.545-2-.545-1.065 0-2.028.425-2.745 1.105-.168-.686-.255-1.389-.255-2.105v-6.512c0-.445.287-.83.712-.958l8.288-2.486 8.287 2.486c.426.128.713.513.713.958zm1.831 1.868c.104-.611.169-1.234.169-1.868v-3.816c1.161.414 2 1.514 2 2.816 0 1.364-.921 2.506-2.169 2.868zm-.005-16.241c-1.851-1.066-4.114-1.868-6.662-2.29l-.328 1.973c5.985.991 10.164 4.153 10.164 7.69 0 .795-.224 1.573-.636 2.326-.656-.6-1.46-1.041-2.364-1.225v-.613c0-1.335-.859-2.49-2.138-2.874l-7.908-2.372c-.19-3.576-1.696-6.829-4.064-8.911.987-.212 2.029-.331 3.11-.331 5.421 0 9.927 2.869 10.826 6.627zm-17.666.41-.62-1.901c-1.238.404-2.361.903-3.363 1.475.575-2.374 2.589-4.388 5.367-5.548 2.537 1.577 4.205 4.691 4.412 8.206l-7.819 2.345c-1.278.384-2.137 1.539-2.137 2.874v.613c-.903.184-1.708.624-2.364 1.225-.412-.753-.636-1.531-.636-2.326 0-2.855 2.744-5.523 7.16-6.963zm-6.16 12.963c0-1.302.839-2.402 2-2.816v3.816c0 .634.072 1.256.179 1.871-1.254-.359-2.179-1.503-2.179-2.871zm-18 9c-.551 0-1-.449-1-1s.449-1 1-1h2.025c-.005.084-.025.163-.025.248v.459c0 .254.023.509.068.76l.097.533zm35 29h-12.142l-1.827-11.874c-.021-.135-.031-.272-.031-.409v-1.023c0-1.486 1.208-2.694 2.694-2.694h8.611c1.487 0 2.695 1.208 2.695 2.694zm1.93-14h1.23c1.566 0 2.84 1.274 2.84 2.84 0 .079-.003.158-.01.236l-.91 10.924h-3.08v-13.306c0-.237-.036-.466-.07-.694zm10.07 14h-4.913l.897-10.758c.011-.134.016-.267.016-.402 0-2.669-2.171-4.84-4.84-4.84h-2.022c-.851-1.206-2.248-2-3.832-2h-8.611c-2.547 0-4.616 2.042-4.682 4.574l-2.843 2.843c-1.022 1.021-2.379 1.583-3.823 1.583-2.614 0-4.852-1.867-5.319-4.439l-2.992-16.451c-.024-.133-.036-.268-.036-.403v-.459c0-1.24 1.008-2.248 2.248-2.248 1.104 0 2.037.79 2.218 1.879l.631 3.788 1.162.581c.457.229.741.688.741 1.2 0 .208-.049.415-.142.6l-.898 1.796.833 4.996c.208 1.251 1.281 2.16 2.55 2.16.69 0 1.34-.269 1.828-.757l2.271-2.271c1.304-1.304 3.03-2.148 4.861-2.377l5.57-.696.36-2.319c.831.42 1.796.548 2.767.283.338.092.668.137 1 .137.622 0 1.22-.161 1.765-.435l.363 2.334 5.57.696c1.831.229 3.557 1.074 4.861 2.377 1.574 1.575 2.441 3.669 2.441 5.896z"/><path d="m14 23c1.654 0 3-1.346 3-3s-1.346-3-3-3-3 1.346-3 3 1.346 3 3 3zm0-4c.551 0 1 .449 1 1s-.449 1-1 1-1-.449-1-1 .449-1 1-1z"/><path d="m16 14c1.654 0 3-1.346 3-3s-1.346-3-3-3-3 1.346-3 3 1.346 3 3 3zm0-4c.551 0 1 .449 1 1s-.449 1-1 1-1-.449-1-1 .449-1 1-1z"/><path d="m4 7c1.654 0 3-1.346 3-3s-1.346-3-3-3-3 1.346-3 3 1.346 3 3 3zm0-4c.551 0 1 .449 1 1s-.449 1-1 1-1-.449-1-1 .449-1 1-1z"/><path d="m60 3c-1.654 0-3 1.346-3 3s1.346 3 3 3 3-1.346 3-3-1.346-3-3-3zm0 4c-.551 0-1-.449-1-1s.449-1 1-1 1 .449 1 1-.449 1-1 1z"/><path d="m59 28c-1.654 0-3 1.346-3 3s1.346 3 3 3 3-1.346 3-3-1.346-3-3-3zm0 4c-.551 0-1-.449-1-1s.449-1 1-1 1 .449 1 1-.449 1-1 1z"/><path d="m7 24c0-1.654-1.346-3-3-3s-3 1.346-3 3 1.346 3 3 3 3-1.346 3-3zm-3 1c-.551 0-1-.449-1-1s.449-1 1-1 1 .449 1 1-.449 1-1 1z"/></g></g></svg>