<svg id="Capa_1" enable-background="new 0 0 511.98 511.98" height="512" viewBox="0 0 511.98 511.98" width="512" xmlns="http://www.w3.org/2000/svg"><g><path d="m439.467 362.017h-366.954v-136.822c0-53.833 43.64-97.474 97.474-97.474h172.007c53.833 0 97.474 43.64 97.474 97.474v136.822z" fill="#3d6b73"/><path d="m341.994 127.721h-24.598c53.833 0 97.474 43.641 97.474 97.474v136.822h24.598v-136.822c-.001-53.833-43.641-97.474-97.474-97.474z" fill="#2e5459"/><path d="m464.88 463.242h-417.779c-6.106 0-11.057-4.95-11.057-11.057v-79.112c0-6.106 4.95-11.057 11.057-11.057h417.779c6.106 0 11.057 4.95 11.057 11.057v79.112c-.001 6.107-4.951 11.057-11.057 11.057z" fill="#dd636e"/><path d="m464.88 362.017h-20.961c6.106 0 11.057 4.95 11.057 11.057v79.112c0 6.106-4.95 11.057-11.057 11.057h20.961c6.106 0 11.057-4.95 11.057-11.057v-79.112c-.001-6.107-4.951-11.057-11.057-11.057z" fill="#da4a54"/><g fill="#3d6b73"><path d="m131.344 504.48h-21.479c-4.239 0-7.675-3.436-7.675-7.675v-33.563h36.829v33.563c0 4.239-3.436 7.675-7.675 7.675z"/><path d="m402.116 504.48h-21.479c-4.239 0-7.675-3.436-7.675-7.675v-33.563h36.829v33.563c0 4.239-3.437 7.675-7.675 7.675z"/></g><path d="m403.378 102.427-1.127-7.371c-1.177-7.699-8.58-12.83-16.202-11.229-2.266.476-3.934 2.408-4.073 4.719l-.886 14.681c-.843 13.966-3.352 27.78-7.472 41.151l-2.548 8.268c-7.038 22.838-20.262 43.281-38.205 59.065l-15.265 13.427c-6.449 5.672-15.736 6.912-23.358 2.955-.552-.286-1.108-.567-1.668-.841-7.919-3.876-13.341-11.492-14.411-20.243l-2.729-22.317-1.685-13.78h-35.518l-1.685 13.778-2.729 22.318c-1.07 8.751-6.492 16.368-14.411 20.243-.56.274-1.116.555-1.668.841-7.622 3.957-16.91 2.717-23.358-2.955l-15.264-13.426c-17.943-15.783-31.167-36.226-38.205-59.064l-2.548-8.267c-4.121-13.373-6.63-27.19-7.473-41.158l-.886-14.677c-.14-2.311-1.807-4.244-4.073-4.719-7.623-1.6-15.025 3.53-16.202 11.229l-1.127 7.371c-3.681 24.071-1.268 48.68 7.02 71.577l.002.004c9.262 25.592 25.192 48.245 46.142 65.617l11.093 9.199c6.76 5.606 9.402 14.857 6.403 23.112-3.136 8.633-4.815 17.876-4.815 27.376v26.845c0 6.968 5.648 12.616 12.616 12.616h137.854c6.968 0 12.616-5.648 12.616-12.616v-26.845c0-9.5-1.679-18.743-4.815-27.376-2.998-8.254-.357-17.506 6.403-23.112l11.093-9.199c20.949-17.372 36.878-40.024 46.141-65.614l.001-.004c8.289-22.896 10.703-47.507 7.022-71.579z" fill="#cbe2ff"/><path d="m277.985 205.558-4.236-34.646h-35.518l-4.236 34.646c14.664 11.182 29.327 11.182 43.99 0z" fill="#e2a770"/><path d="m255.99 187.562c-26.111 0-47.278-21.167-47.278-47.278v-30.301-38.88h94.556v21.295 47.886c0 26.111-21.167 47.278-47.278 47.278z" fill="#f1d0a5"/><path d="m208.712 71.103v51.04c2.077.013 4.191-.172 6.324-.6 16.985-3.403 32.78-9.665 47.457-18.61 2.402-1.464 4.962-2.597 7.605-3.385 7.829-2.333 15.669 3.688 15.669 11.857v28.879c0 23.12-16.599 42.351-38.527 46.456 2.837.531 5.759.822 8.751.822 26.111 0 47.278-21.167 47.278-47.278v-69.181z" fill="#f1b986"/><path d="m295.476 89.355c-1.611-.801-3.224-1.535-4.838-2.192-9.207-3.746-19.657-2.686-28.145 2.487-14.678 8.945-30.472 15.208-47.457 18.61-19.193 3.845-37.091-10.906-37.091-30.48v-17.531c0-35.354 34.169-60.805 67.966-50.43 10.003 3.071 19.641 7.8 28.94 14.064 2.779 1.872 6.51 1.219 8.58-1.415.115-.147.231-.292.348-.436 14.229-17.634 42.817-7.225 42.817 15.433v32.49c-.001 15.989-16.804 26.521-31.12 19.4z" fill="#be694f"/><g><path d="m292.247 15.329c8.114 3.622 14.368 11.538 14.368 22.136v32.49c0 8.612-4.879 15.635-11.614 19.175.158.077.316.147.474.226 14.316 7.121 31.119-3.412 31.119-19.401v-32.49c.001-18.734-19.535-29.075-34.347-22.136z" fill="#aa593d"/></g><path d="m439.467 362.017h-366.954v-18.485c0-25.982 21.063-47.045 47.045-47.045h272.864c25.982 0 47.045 21.063 47.045 47.045z" fill="#f9f6f6"/><path d="m392.422 296.487h-24.598c25.982 0 47.045 21.063 47.045 47.045v18.485h24.598v-18.485c0-25.982-21.063-47.045-47.045-47.045z" fill="#efe7e4"/><g fill="#f1b986"><path d="m140.911 152.645-2.547-8.264c-4.121-13.373-6.63-27.19-7.473-41.158l-.886-14.677c-.14-2.311-1.807-4.244-4.073-4.719-7.623-1.6-15.025 3.53-16.202 11.229l-1.127 7.372c-3.681 24.07-1.268 48.68 7.019 71.576l.001.004c2.955 8.164 6.595 16.025 10.853 23.514l27.162-16.37c-5.351-8.913-9.636-18.478-12.727-28.507z"/><path d="m396.357 174.008c8.288-22.898 10.702-47.509 7.021-71.581l-1.127-7.371c-1.177-7.699-8.58-12.83-16.202-11.229-2.266.476-3.934 2.408-4.073 4.719l-.886 14.677c-.843 13.969-3.352 27.787-7.474 41.16l-2.546 8.262c-2.744 8.905-6.441 17.438-10.979 25.481l27.097 16.331c3.534-6.563 6.614-13.389 9.169-20.449z"/></g><path d="m398.554 430.248h-285.127c-6.802 0-12.315-5.514-12.315-12.315v-10.606c0-6.802 5.514-12.315 12.315-12.315h285.127c6.802 0 12.315 5.514 12.315 12.315v10.606c0 6.801-5.514 12.315-12.315 12.315z" fill="#da4a54"/><g><path d="m398.554 437.748c10.926 0 19.814-8.889 19.814-19.815v-10.606c0-10.926-8.889-19.815-19.814-19.815h-285.128c-10.926 0-19.815 8.89-19.815 19.815v10.606c0 10.927 8.89 19.815 19.815 19.815zm-289.943-19.815v-10.606c0-2.655 2.16-4.815 4.815-4.815h285.128c2.654 0 4.814 2.16 4.814 4.815v10.606c0 2.655-2.16 4.815-4.814 4.815h-285.128c-2.655 0-4.815-2.16-4.815-4.815z"/><path d="m236.906 136.505c.788-.452 1.047-.453 1.837 0 1.177.675 2.459.996 3.725.996 2.6 0 5.127-1.354 6.513-3.77 2.061-3.593.818-8.176-2.774-10.237-5.404-3.1-11.358-3.099-16.763 0-3.593 2.061-4.835 6.645-2.774 10.237 2.059 3.594 6.645 4.835 10.236 2.774z"/><path d="m269.513 137.501c1.266 0 2.549-.321 3.725-.996.791-.453 1.049-.452 1.838 0 3.591 2.06 8.176.818 10.236-2.776 2.061-3.593.818-8.176-2.775-10.237-5.403-3.099-11.356-3.099-16.762 0-3.593 2.061-4.835 6.645-2.774 10.237 1.385 2.418 3.913 3.772 6.512 3.772z"/><path d="m464.879 354.517h-17.912v-119.437c0-4.142-3.357-7.5-7.5-7.5s-7.5 3.358-7.5 7.5v70.943c-9.946-10.481-23.99-17.036-39.545-17.036h-48.011c-.791-6.687-2.338-13.264-4.643-19.61-1.895-5.214-.229-11.152 4.141-14.777l11.093-9.199c21.959-18.209 38.698-42.012 48.406-68.834.011-.029.021-.059.031-.088 1.54-4.262 2.877-8.59 4.029-12.964 11.129 11.839 18.975 26.578 22.428 42.427.883 4.054 4.887 6.612 8.925 5.731 4.048-.882 6.613-4.878 5.731-8.925-4.761-21.842-16.661-41.866-33.573-56.641 2.116-14.83 2.084-29.957-.188-44.812l-1.127-7.37c-.871-5.698-4.088-10.849-8.824-14.132-4.737-3.284-10.688-4.487-16.333-3.304-5.557 1.166-9.676 5.939-10.019 11.607l-.887 14.682c-.435 7.215-1.354 14.399-2.714 21.498-9.358-2.677-19.043-4.054-28.895-4.054h-31.226v-21.7c3.308-.678 6.53-1.931 9.517-3.781 8.647-5.357 13.811-14.623 13.811-24.785v-32.49c0-13.642-8.345-25.404-21.261-29.964-12.644-4.466-26.222-.709-34.685 9.567-9.716-6.431-19.816-11.28-30.037-14.418-21.487-6.597-44.664-.667-60.485 15.474-2.9 2.958-2.853 7.706.105 10.606 2.958 2.899 7.706 2.854 10.605-.106 11.883-12.12 29.27-16.577 45.372-11.634 9.12 2.8 18.188 7.212 26.95 13.114 5.979 4.026 14.179 2.711 18.673-3.007l.282-.354c5.339-6.617 12.912-6.973 18.225-5.097 5.44 1.921 11.255 7.086 11.255 15.82v32.49c0 4.932-2.509 9.431-6.71 12.034-4.211 2.609-9.157 2.847-13.568.652-1.806-.898-3.607-1.714-5.352-2.423-11.23-4.57-24.267-3.437-34.876 3.029-14.015 8.541-29.164 14.483-45.027 17.661-6.908 1.383-14.006-.39-19.472-4.869-5.494-4.503-8.646-11.158-8.646-18.257v-17.535c0-2.935.291-5.908.866-8.838.797-4.065-1.853-8.006-5.917-8.803-4.065-.796-8.006 1.852-8.804 5.917-.76 3.878-1.146 7.823-1.146 11.724v17.532c0 11.612 5.153 22.496 14.138 29.859 4.903 4.018 10.61 6.701 16.63 7.939v4.642h-31.226c-9.857 0-19.54 1.372-28.896 4.048-1.359-7.099-2.278-14.282-2.714-21.497l-.886-14.677c-.343-5.668-4.462-10.441-10.019-11.607-5.64-1.185-11.595.02-16.333 3.304-4.736 3.284-7.953 8.435-8.824 14.131l-1.128 7.372c-2.27 14.849-2.303 29.969-.19 44.792-22.883 19.969-35.984 48.714-35.984 79.109v129.322h-17.908c-10.232 0-18.557 8.324-18.557 18.557v24.562c0 4.143 3.357 7.5 7.5 7.5s7.5-3.357 7.5-7.5v-24.562c0-1.961 1.596-3.557 3.557-3.557h417.778c1.961 0 3.557 1.596 3.557 3.557v79.112c0 1.961-1.596 3.557-3.557 3.557h-417.778c-1.961 0-3.557-1.596-3.557-3.557v-24.562c0-4.143-3.357-7.5-7.5-7.5s-7.5 3.357-7.5 7.5v24.562c0 10.232 8.324 18.557 18.557 18.557h47.589v26.063c0 8.367 6.808 15.175 15.175 15.175h21.479c8.367 0 15.175-6.808 15.175-15.175v-26.063h218.942v26.063c0 8.367 6.808 15.175 15.175 15.175h21.479c8.367 0 15.175-6.808 15.175-15.175v-26.063h47.589c10.232 0 18.557-8.324 18.557-18.557v-79.112c0-10.234-8.324-18.558-18.557-18.558zm-119.452-120.664-11.094 9.199c-9.232 7.657-12.715 20.293-8.665 31.445 1.707 4.701 2.912 9.555 3.619 14.489h-146.593c.708-4.937 1.911-9.791 3.618-14.489 4.05-11.151.567-23.788-8.666-31.445l-11.093-9.199c-11.665-9.673-21.689-21.097-29.773-33.784l14.484-8.729c6.474 9.553 14.146 18.304 22.899 26.003l15.264 13.427c8.755 7.701 21.521 9.298 31.765 3.981.5-.26 1.005-.514 1.513-.763 7.27-3.558 12.862-9.512 15.997-16.712 5.718 2.779 11.503 4.178 17.289 4.178 5.785 0 11.57-1.398 17.288-4.177 3.134 7.2 8.726 13.153 15.997 16.712.509.249 1.013.503 1.511.761 10.245 5.318 23.013 3.72 31.767-3.98l15.264-13.426c9.638-8.477 17.977-18.221 24.834-28.918l14.403 8.68c-8.385 13.877-19.06 26.325-31.628 36.747zm-89.437-38.791c4.467 0 8.806-.55 12.965-1.564l1.034 8.459c-9.473 5.89-18.525 5.891-27.999 0l1.034-8.459c4.16 1.014 8.499 1.564 12.966 1.564zm132.585-91.382.763-12.626c1.05.084 2.063.445 2.957 1.065 3.335 2.311 2.417 5.696 3.669 11.442 3.481 22.763 1.179 46.241-6.659 67.895l-.029.085c-1.521 4.195-3.245 8.302-5.138 12.322l-14.102-8.499c8.327-16.795 16.913-44.746 18.539-71.684zm-46.581 31.541c8.677 0 17.199 1.243 25.416 3.66-7.936 27.749-17.646 47.976-39.5 67.199l-15.265 13.426c-4.142 3.645-10.15 4.421-14.951 1.928-.604-.312-1.211-.619-1.824-.919-5.661-2.771-9.498-8.161-10.263-14.417l-2.249-18.394c16.368-9.483 27.41-27.181 27.41-47.421v-5.062zm-75.598-39.166c6.566-4.002 14.572-4.729 21.418-1.943 3.928 1.598 4.766 2.383 7.954 3.466v42.705c0 21.934-17.845 39.778-39.778 39.778s-39.777-17.844-39.777-39.778v-24.617c.099-.019.198-.032.297-.052 17.585-3.522 34.369-10.103 49.886-19.559zm-96.409 39.166h31.226v5.062c0 20.24 11.042 37.938 27.41 47.421l-2.249 18.393c-.766 6.257-4.602 11.646-10.264 14.417-.612.3-1.221.606-1.827.921-4.794 2.49-10.803 1.715-14.949-1.93l-15.264-13.425c-21.583-18.985-31.537-39.346-39.499-67.199 8.216-2.417 16.735-3.66 25.416-3.66zm-53.971-31.659c1.254-5.754.331-9.13 3.67-11.443.894-.62 1.907-.98 2.957-1.065l.762 12.621c1.652 27.347 10.592 56.73 20.138 74.805l-14.162 8.535c-2.524-5.042-4.776-10.23-6.705-15.559-.008-.021-.016-.042-.024-.064-7.818-21.635-10.113-45.089-6.636-67.83zm-36.003 121.633c0-23.095 8.823-45.083 24.492-61.703 1.16 4.408 2.509 8.771 4.064 13.066.009.022.017.044.024.066 9.541 26.324 26.128 50.32 48.386 68.777l11.092 9.198c4.371 3.625 6.036 9.564 4.143 14.777-2.305 6.344-3.853 12.92-4.645 19.611h-48.01c-15.555 0-29.599 6.556-39.545 17.036v-80.828zm0 129.322v-10.984c0-21.806 17.74-39.546 39.545-39.546h272.864c21.805 0 39.545 17.74 39.545 39.546v10.984zm51.506 142.289c0 .097-.078.175-.175.175h-21.479c-.097 0-.175-.078-.175-.175v-26.063h21.829zm270.772 0c0 .097-.078.175-.175.175h-21.479c-.097 0-.175-.078-.175-.175v-26.063h21.829z"/></g></g></svg>