<svg id="Layer_1" enable-background="new 0 0 512 512" height="512" viewBox="0 0 512 512" width="512" xmlns="http://www.w3.org/2000/svg"><g><g><path d="m331.567 324.5c-6.262-8.857-11.953-22.042-31.478-32.494 4.051-17.874-6.948-40.788-31.36-44.709-.734-25.332-27.868-35.447-51.061-28.636-7.456-9.135-20.135-13.221-33.12-13.221-12.834 0-25.671 4.07-33.138 13.208-23.485-6.808-50.239 3.426-50.99 28.65-23.735 3.875-35.483 25.874-31.427 44.697-19.533 10.455-25.268 23.7-31.493 32.505v20h147.034 147.033z" fill="#ffb357"/><g><path d="m281.011 173.385c-21.576-21.575-52.876-27.479-79.789-17.74l-84.144-124.871v-.001h-30.268v104.071l68.814 66.364c-9.768 26.926-3.871 58.254 17.719 79.845 29.731 29.731 109.423 61.218 139.154 31.487s-1.754-109.424-31.486-139.155z" fill="#9ea2e3"/><g fill="#8288cb"><path d="m117.078 30.774c-11.735-14.586-29.428-23.274-48.132-23.274-33.882 0-61.446 27.564-61.446 61.446 0 18.703 8.365 36.16 22.952 47.896.155.125.316.243.481.354l124.692 84.011c-40.44-46.761-54.971-110.827-38.547-170.433z"/><path d="m259.798 194.599c-13.247-13.247-32.246-16.579-48.367-10.744-11.927 4.316-23.279 15.659-27.605 27.583-6.092 16.793-1.879 35.792 10.731 48.402 6.455 6.455 16.741 13.33 28.491 19.242l56.029-56.029c-6.395-12.625-13.562-22.738-19.279-28.454z"/></g></g><path d="m474.5 324.5c-6.262-8.857-11.953-22.042-31.478-32.494 4.051-17.874-6.948-40.788-31.36-44.709-.734-25.332-27.868-35.447-51.061-28.636-7.456-9.135-20.135-13.221-33.12-13.221-12.834 0-25.671 4.07-33.138 13.208-23.485-6.808-50.239 3.426-50.99 28.65-23.735 3.875-35.483 25.874-31.427 44.697-19.533 10.454-25.269 23.699-31.493 32.504v20h147.034 147.033z" fill="#ffce71"/></g><g><path d="m474.5 324.5h-437l216.849 158.609c17.892 13.086 39.484 20.14 61.65 20.14 19.885-2.892 39.445-10.816 56.225-23.749 22.954-17.701 43.372-38.483 60.672-61.763 7.864-10.581 15.083-21.679 21.604-33.237h19.325c16.864 0 31.032-13.802 30.668-30.662-.352-16.293-13.67-29.338-29.993-29.338z" fill="#efedff"/><path d="m177.5 384.5h-20c-16.568 0-30-13.432-30-30s13.432-30 30-30h-120c-16.568 0-30 13.432-30 30s13.432 30 30 30h20c20.865 36.987 48.889 69.253 82.276 95 21.012 16.203 46.795 25 73.329 25h85.79c5.752 0 11.465-.432 17.104-1.251-20.379-2.937-39.767-11.059-56.224-23.749-33.386-25.747-61.41-58.013-82.275-95z" fill="#d4d4ff"/></g><g><g><g><ellipse cx="178.298" cy="451.526" fill="#ff8e9e" rx="27.5" ry="21.9"/></g><g><ellipse cx="333.702" cy="451.526" fill="#ff8e9e" rx="27.5" ry="21.9"/></g></g></g><g><g fill="#ffb357"><path d="m313.702 102.47c-8.284 0-15 6.716-15 15-8.284 0-15 6.716-15 15s6.716 15 15 15c16.542 0 30-13.458 30-30 0-8.284-6.716-15-15-15z"/><path d="m426.808 143.757c-5.858-5.858-15.355-5.858-21.213 0-11.697 11.697-11.697 30.729 0 42.426 5.858 5.858 15.355 5.858 21.213 0s5.858-15.355 0-21.213c5.858-5.858 5.858-15.355 0-21.213z"/><path d="m397.415 65.577c5.858-5.858 5.858-15.355 0-21.213s-15.355-5.858-21.213 0c-5.858-5.858-15.355-5.858-21.213 0s-5.858 15.355 0 21.213c11.697 11.696 30.729 11.696 42.426 0z"/><path d="m299.702 267.47c0-8.284-6.716-15-15-15s-15 6.716-15 15c0 16.542 13.458 30 30 30 8.284 0 15-6.716 15-15s-6.716-15-15-15z"/><path d="m355.595 251.757c-11.697 11.697-11.697 30.729 0 42.426 5.858 5.858 15.355 5.858 21.213 0s5.858-15.355 0-21.213c5.858-5.858 5.858-15.355 0-21.213-5.857-5.858-15.355-5.858-21.213 0z"/></g><path d="m103.798 309.5c0-16.542 13.458-30 30-30 8.284 0 15 6.716 15 15s-6.716 15-15 15c0 8.284-6.716 15-15 15s-15-6.716-15-15z" fill="#ffce71"/></g><g><path d="m478.66 317.242c-5.201-8.024-11.774-19.466-27.469-29.182 1.66-20.214-10.8-40.652-32.637-46.901-4.422-24.792-30.671-36.009-55.512-30.835-13.968-13.027-37.061-14.819-53.489-9.837-6.166-11.309-12.997-21.233-19.965-28.953-2.774-3.074-7.518-3.318-10.593-.542-3.075 2.775-3.317 7.518-.542 10.593 5.963 6.607 12.075 15.474 17.56 25.413-1.459 1.031-2.842 2.134-4.119 3.325-24.672-5.079-50.984 5.85-55.434 30.85-11.632 3.351-21.152 10.84-26.991 21.215-3.835-2.678-7.094-5.335-9.61-7.85-10.561-10.561-14.087-26.474-8.984-40.541 3.564-9.822 13.282-19.532 23.107-23.088 3.895-1.41 5.91-5.71 4.5-9.604-1.409-3.896-5.711-5.908-9.604-4.501-14.091 5.1-26.992 17.99-32.103 32.078-7.081 19.519-2.183 41.603 12.478 56.264 3.86 3.859 9.006 7.893 15.031 11.824-.633 3.68-.81 7.425-.501 11.139-1.629 1.056-3.197 2.177-4.707 3.338-8.216-5.113-15.222-10.488-20.429-15.695-19.671-19.672-24.691-47.946-15.972-71.984 1.173-3.235-.006-6.854-2.86-8.777l-124.662-83.993c-12.807-10.305-20.153-25.632-20.153-42.053 0-29.745 24.2-53.945 53.946-53.945 16.306 0 31.631 7.371 42.096 20.236l83.961 124.6c1.921 2.851 5.535 4.031 8.771 2.861 17.608-6.372 36.871-5.186 53.195 2.672 3.731 1.795 8.214.228 10.011-3.505 1.796-3.732.228-8.214-3.505-10.011-18.326-8.822-39.495-10.669-59.183-5.075-.273-.405-81.064-120.326-81.371-120.706-13.33-16.569-33.004-26.072-53.975-26.072-38.017 0-68.946 30.929-68.946 68.945 0 24.142 13.223 45.306 26.742 54.471l120.017 80.861c-.509 1.795-.944 3.614-1.333 5.446-23.594-3.39-47.655 7.588-51.898 31.449-21.629 6.229-34.355 26.414-32.684 46.865-15.663 9.686-22.237 21.074-27.5 29.199-18.729 2.076-33.344 17.992-33.344 37.264 0 20.678 16.822 37.5 37.5 37.5h15.654c11.342 19.479 24.74 37.791 39.872 54.488 2.781 3.069 7.524 3.303 10.594.521s3.303-7.524.521-10.594c-12.455-13.743-23.654-28.651-33.449-44.415h103.615c4.142 0 7.5-3.357 7.5-7.5s-3.358-7.5-7.5-7.5c-4.336 0-121.186 0-136.808 0-12.406 0-22.499-10.094-22.499-22.5s10.093-22.5 22.5-22.5h437c11.902 0 22.372 9.592 22.499 22.473 0 12.211-10.612 22.527-23.175 22.527-3.229 0-134.922 0-136.132 0-4.143 0-7.5 3.357-7.5 7.5s3.357 7.5 7.5 7.5h103.632c-19.505 31.448-44.233 58.851-73.679 81.56-19.61 15.116-44.026 23.44-68.75 23.44h-85.79c-24.733 0-49.148-8.324-68.749-23.438-6.713-5.178-13.291-10.699-19.549-16.409-3.06-2.793-7.804-2.575-10.595.484-2.792 3.06-2.575 7.804.485 10.596 6.562 5.988 13.459 11.777 20.499 17.207 22.211 17.127 49.88 26.56 77.909 26.56h85.79c28.02 0 55.688-9.433 77.91-26.561 33.327-25.702 60.912-57.123 82.042-93.439h14.978c21.05 0 38.176-16.835 38.176-37.527-.001-19.144-14.726-35.129-33.341-37.231zm-234.098-62.541c3.544-.579 6.181-3.59 6.288-7.18.61-20.499 23.425-26.879 41.405-21.67 2.886.838 5.995-.13 7.896-2.457 11.307-13.838 43.097-14.136 54.64.008 1.907 2.336 5.026 3.306 7.924 2.454 17.897-5.256 40.858 1.19 41.45 21.658.104 3.599 2.752 6.616 6.308 7.188 19.867 3.19 28.392 21.721 25.234 35.646-.746 3.292.799 6.678 3.775 8.271 10.606 5.677 16.562 12.143 21.033 18.382h-265.904c4.953-6.249 12.114-13.713 20.854-18.392 2.951-1.578 4.498-4.921 3.793-8.192-3.202-14.864 6.063-32.575 25.304-35.716zm-172.03 43.907c2.951-1.578 4.498-4.921 3.793-8.192-3.224-14.965 6.11-32.581 25.304-35.715 3.544-.579 6.181-3.589 6.288-7.179.537-18.025 18.497-25.573 35.695-22.921-.734 23.207 7.975 45.3 24.429 61.755 5.234 5.234 11.934 10.549 19.659 15.619-5.318 5.816-9.222 11.43-11.509 15.024h-43.196c.114-.322.237-.639.337-.967 9.23-2.806 15.967-11.397 15.967-21.533 0-12.406-10.093-22.5-22.5-22.5-20.678 0-37.5 16.822-37.5 37.5 0 2.629.458 5.153 1.29 7.5h-39.104c4.477-6.245 10.441-12.715 21.047-18.391zm31.766 10.892c0-12.406 10.093-22.5 22.5-22.5 4.136 0 7.5 3.364 7.5 7.5s-3.364 7.5-7.5 7.5c-4.142 0-7.5 3.357-7.5 7.5 0 4.136-3.364 7.5-7.5 7.5s-7.5-3.364-7.5-7.5z"/><path d="m299.702 304.97c12.407 0 22.5-10.094 22.5-22.5 0-10.136-6.736-18.728-15.967-21.533-2.806-9.23-11.397-15.967-21.533-15.967-12.407 0-22.5 10.094-22.5 22.5 0 20.677 16.822 37.5 37.5 37.5zm-15-45c4.136 0 7.5 3.364 7.5 7.5 0 4.143 3.358 7.5 7.5 7.5 4.136 0 7.5 3.364 7.5 7.5s-3.364 7.5-7.5 7.5c-12.407 0-22.5-10.094-22.5-22.5 0-4.136 3.364-7.5 7.5-7.5z"/><path d="m382.112 299.486c7.166-7.167 8.478-18.005 3.936-26.517 4.543-8.511 3.23-19.35-3.937-26.517-8.773-8.771-23.046-8.771-31.819 0-14.621 14.622-14.621 38.412 0 53.034 8.772 8.771 23.047 8.773 31.82 0zm-21.213-42.425c2.925-2.925 7.682-2.924 10.605 0 2.925 2.924 2.925 7.682 0 10.605-2.929 2.929-2.929 7.678 0 10.606 2.924 2.925 2.924 7.684.001 10.607-2.926 2.924-7.685 2.924-10.606 0-8.773-8.772-8.773-23.046 0-31.818z"/><path d="m298.702 154.97c20.678 0 37.5-16.822 37.5-37.5 0-12.406-10.094-22.5-22.5-22.5-10.136 0-18.727 6.736-21.533 15.967-9.23 2.806-15.967 11.397-15.967 21.533 0 12.406 10.093 22.5 22.5 22.5zm0-30c4.142 0 7.5-3.357 7.5-7.5 0-4.136 3.364-7.5 7.5-7.5s7.5 3.364 7.5 7.5c0 12.406-10.094 22.5-22.5 22.5-4.136 0-7.5-3.364-7.5-7.5s3.364-7.5 7.5-7.5z"/><path d="m389.322 164.97c0 10.026 3.896 19.443 10.97 26.518 8.772 8.77 23.047 8.772 31.82-.001 7.166-7.167 8.478-18.005 3.936-26.517 4.543-8.511 3.23-19.35-3.936-26.517-8.791-8.791-23.026-8.796-31.819 0-7.074 7.073-10.971 16.49-10.971 26.517zm21.577-15.91c2.93-2.93 7.675-2.931 10.605.001 2.925 2.924 2.925 7.682 0 10.605-2.929 2.929-2.929 7.678 0 10.606 2.924 2.925 2.924 7.684.001 10.607-2.926 2.924-7.685 2.924-10.606 0-4.241-4.24-6.577-9.891-6.577-15.91 0-6.018 2.336-11.668 6.577-15.909z"/><path d="m402.719 70.88c8.772-8.773 8.772-23.047 0-31.82-7.168-7.166-18.006-8.479-26.517-3.936-8.512-4.54-19.35-3.229-26.518 3.936-8.772 8.773-8.772 23.047 0 31.82 14.623 14.621 38.411 14.621 53.035 0zm-42.428-21.213c2.926-2.924 7.682-2.925 10.608 0 2.93 2.928 7.677 2.928 10.606 0 2.924-2.926 7.682-2.926 10.605 0 2.925 2.924 2.925 7.682 0 10.605-8.771 8.772-23.047 8.774-31.819 0-2.924-2.923-2.924-7.681 0-10.605z"/><path d="m201.051 436.5v-12c0-4.143-3.358-7.5-7.5-7.5s-7.5 3.357-7.5 7.5v12c0 4.143 3.358 7.5 7.5 7.5s7.5-3.357 7.5-7.5z"/><path d="m325.949 436.5v-12c0-4.143-3.358-7.5-7.5-7.5s-7.5 3.357-7.5 7.5v12c0 4.143 3.358 7.5 7.5 7.5s7.5-3.357 7.5-7.5z"/><path d="m278.119 441.07c2.721-3.123 2.396-7.86-.727-10.582s-7.861-2.396-10.582.727c-5.724 6.57-15.9 6.566-21.62 0-2.722-3.122-7.459-3.447-10.582-.727-3.123 2.722-3.448 7.459-.727 10.582 11.706 13.431 32.545 13.417 44.238 0z"/></g></g></svg>