<svg id="Layer_5" enable-background="new 0 0 64 64" height="512" viewBox="0 0 64 64" width="512" xmlns="http://www.w3.org/2000/svg"><g><g><g><path d="m11.03 15.03-2.97 2.97c-2.75-2.75-2.75-7.2 0-9.94 2.74-2.75 7.19-2.75 9.94 0l-2.97 2.97z" fill="#fcd770"/></g><g><path d="m36 2c1.66 0 3 1.34 3 3 0 .55-.45 1-1 1h-3-6-3c-.55 0-1-.45-1-1 0-.83.34-1.58.88-2.12s1.29-.88 2.12-.88z" fill="#fcd770"/></g><g><path d="m52.97 15.03-4-4-2.97-2.97c2.75-2.75 7.2-2.75 9.94 0 2.75 2.74 2.75 7.19 0 9.94z" fill="#fcd770"/></g><g><path d="m35 6v4.19c-.98-.13-1.98-.19-3-.19s-2.02.06-3 .19v-4.19z" fill="#ffeaa7"/></g><g><path d="m15.03 11.03 3.27 3.27c-1.56 1.08-2.98 2.35-4.24 3.76l-3.03-3.03z" fill="#ffeaa7"/></g><g><path d="m52.97 15.03-3.03 3.03c-1.26-1.41-2.68-2.68-4.24-3.76l3.27-3.27z" fill="#ffeaa7"/></g><g><path d="m24.92 56.94c-.45 2.86-2.93 5.06-5.92 5.06-3.31 0-6-2.69-6-6 0-1.93.92-3.64 2.33-4.74 2.67 2.58 5.94 4.55 9.59 5.68z" fill="#fcd770"/></g><g><path d="m48.67 51.26c1.41 1.1 2.33 2.81 2.33 4.74 0 3.31-2.69 6-6 6-2.99 0-5.47-2.2-5.92-5.06 3.65-1.13 6.92-3.1 9.59-5.68z" fill="#fcd770"/></g><g><path d="m48.67 51.26c-2.67 2.58-5.94 4.55-9.59 5.68-2.24.69-4.62 1.06-7.08 1.06s-4.84-.37-7.08-1.06c-3.65-1.13-6.92-3.1-9.59-5.68-4.52-4.36-7.33-10.49-7.33-17.26 0-6.11 2.29-11.7 6.06-15.94 1.26-1.41 2.68-2.68 4.24-3.76 3.11-2.17 6.76-3.62 10.7-4.11.98-.13 1.98-.19 3-.19s2.02.06 3 .19c3.94.49 7.59 1.94 10.7 4.11 1.56 1.08 2.98 2.35 4.24 3.76 3.77 4.24 6.06 9.83 6.06 15.94 0 6.77-2.81 12.9-7.33 17.26z" fill="#ccd1d9"/></g><g><path d="m52 34c0 5.52-2.24 10.52-5.86 14.14s-8.62 5.86-14.14 5.86-10.52-2.24-14.14-5.86-5.86-8.62-5.86-14.14 2.24-10.52 5.86-14.14 8.62-5.86 14.14-5.86 10.52 2.24 14.14 5.86 5.86 8.62 5.86 14.14z" fill="#69d6f4"/></g><g><path d="m29.88 36.12c-.54-.54-.88-1.29-.88-2.12 0-1.66 1.34-3 3-3s3 1.34 3 3-1.34 3-3 3c-.83 0-1.58-.34-2.12-.88z" fill="#ff826e"/></g></g><g><path d="m32 13c-11.58 0-21 9.42-21 21s9.42 21 21 21 21-9.42 21-21-9.42-21-21-21zm18.949 22c-.235 4.484-2.024 8.553-4.847 11.688l-2.789-2.789-1.414 1.414 2.789 2.789c-3.135 2.824-7.204 4.612-11.688 4.847v-3.949h-2v3.949c-4.484-.235-8.553-2.024-11.688-4.847l2.789-2.789-1.414-1.414-2.789 2.789c-2.824-3.135-4.612-7.204-4.847-11.688h3.949v-2h-3.949c.235-4.484 2.024-8.553 4.847-11.688l2.789 2.789 1.414-1.414-2.789-2.789c3.135-2.824 7.204-4.612 11.688-4.847v3.949h2v-3.949c4.484.235 8.553 2.024 11.688 4.847l-2.789 2.789 1.414 1.414 2.789-2.789c2.824 3.135 4.612 7.204 4.847 11.688h-3.949v2z"/><path d="m33 30.142v-9.142h-2v9.142c-1.72.447-3 2-3 3.858 0 .74.215 1.424.567 2.019l-4.274 4.274 1.414 1.414 4.274-4.274c.595.352 1.279.567 2.019.567 2.206 0 4-1.794 4-4 0-1.858-1.28-3.411-3-3.858zm-1 5.858c-1.103 0-2-.897-2-2s.897-2 2-2 2 .897 2 2-.897 2-2 2z"/><path d="m51.294 18.12 1.676-1.676 2.97 2.97.707-.707c1.518-1.517 2.353-3.533 2.353-5.678s-.835-4.161-2.352-5.677-3.533-2.352-5.677-2.352c-2.145 0-4.161.835-5.678 2.352l-.707.707 2.97 2.97-1.989 1.989c-2.845-1.846-6.086-3.132-9.567-3.694v-2.324h2c1.103 0 2-.897 2-2 0-2.206-1.794-4-4-4h-8c-2.206 0-4 1.794-4 4 0 1.103.897 2 2 2h2v2.324c-3.481.562-6.722 1.848-9.568 3.694l-1.989-1.989 2.97-2.97-.707-.707c-1.516-1.517-3.532-2.352-5.677-2.352s-4.161.835-5.677 2.352-2.352 3.533-2.352 5.677c0 2.145.835 4.161 2.352 5.678l.707.707 2.97-2.97 1.676 1.676c-3.562 4.321-5.705 9.855-5.705 15.88 0 6.671 2.631 12.735 6.904 17.222-1.215 1.289-1.904 2.976-1.904 4.778 0 3.86 3.14 7 7 7 3.085 0 5.722-1.973 6.643-4.822 2.031.535 4.161.822 6.357.822s4.326-.287 6.357-.822c.921 2.849 3.558 4.822 6.643 4.822 3.86 0 7-3.14 7-7 0-1.802-.689-3.489-1.904-4.778 4.273-4.487 6.904-10.551 6.904-17.222 0-6.025-2.143-11.559-5.706-15.88zm-.323-11.12c1.61 0 3.125.627 4.263 1.766 1.139 1.139 1.766 2.653 1.766 4.263 0 1.272-.391 2.484-1.117 3.499l-8.411-8.411c1.014-.726 2.226-1.117 3.499-1.117zm-2.001 5.444 2.586 2.586-1.601 1.601c-.85-.878-1.762-1.694-2.731-2.441zm-20.97-9.444h8c1.103 0 2 .897 2.001 2h-12.001c0-1.103.897-2 2-2zm2 4h4v2.087c-.661-.052-1.326-.087-2-.087s-1.339.035-2 .087zm-23 6.029c0-1.61.627-3.125 1.766-4.263 1.139-1.139 2.653-1.766 4.263-1.766 1.272 0 2.484.391 3.499 1.117l-8.411 8.411c-.726-1.014-1.117-2.226-1.117-3.499zm5.444 2.001 2.586-2.586 1.746 1.746c-.969.747-1.882 1.563-2.731 2.441zm6.556 45.97c-2.757 0-5-2.243-5-5 0-1.274.483-2.466 1.336-3.384 2.421 2.169 5.266 3.872 8.394 4.972-.667 2.017-2.539 3.412-4.73 3.412zm-10-27c0-12.682 10.318-23 23-23s23 10.318 23 23-10.318 23-23 23-23-10.318-23-23zm36 27c-2.191 0-4.063-1.395-4.73-3.412 3.128-1.1 5.973-2.802 8.394-4.972.853.918 1.336 2.11 1.336 3.384 0 2.757-2.243 5-5 5z"/></g></g></svg>