<svg id="Layer_5" enable-background="new 0 0 64 64" height="512" viewBox="0 0 64 64" width="512" xmlns="http://www.w3.org/2000/svg"><g><g><g><path d="m41.78 21.59c.22.15.41.34.57.55.41.51.65 1.16.65 1.86 0 .83-.34 1.58-.88 2.12s-1.29.88-2.12.88h-1.07l-.21-.05c.18-.62.28-1.27.28-1.95v-4h1c.67 0 1.28.22 1.78.59z" fill="#f0d0b4"/></g><g><path d="m23.05 12.47c-.02.18-.05.35-.05.53 0 1.72 1.09 3.19 2.62 3.75-.4.86-.62 1.82-.62 2.8v1.45h-1c-.67 0-1.28.22-1.78.59-.8-1.21-1.22-2.63-1.22-4.09 0-1.96.75-3.74 1.97-5.07v-.01c.02.02.05.03.08.05z" fill="#656d78"/></g><g><path d="m40.97 12.36c1.26 1.35 2.03 3.15 2.03 5.14 0 1.46-.42 2.88-1.22 4.09-.5-.37-1.11-.59-1.78-.59h-1v-4.54c1.2-.69 2-1.98 2-3.46 0-.22-.02-.43-.06-.64z" fill="#656d78"/></g><g><path d="m40.73 11.59c.1.25.17.5.21.77.04.21.06.42.06.64 0 1.48-.8 2.77-2 3.46-.59.34-1.27.54-2 .54-.69 0-1.33-.19-1.9-.5-.73.91-1.84 1.5-3.1 1.5s-2.37-.59-3.1-1.5c-.57.31-1.21.5-1.9.5-.49 0-.95-.09-1.38-.25-1.53-.56-2.62-2.03-2.62-3.75 0-.18.03-.35.05-.53-.03-.02-.06-.03-.08-.05-1.18-.69-1.97-1.95-1.97-3.42 0-2.21 1.79-4 4-4 .05 0 .09.01.14.01.44-1.73 1.99-3.01 3.86-3.01 1.92 0 3.53 1.36 3.91 3.17.35-.1.71-.17 1.09-.17.69 0 1.33.19 1.9.5.73-.91 1.84-1.5 3.1-1.5 2.21 0 4 1.79 4 4 0 .75-.2 1.45-.57 2.04-.4.67-.99 1.21-1.7 1.55z" fill="#e6e9ed"/></g><g><circle cx="6" cy="24" fill="#e6e9ed" r="2"/></g><g><circle cx="4" cy="6" fill="#e6e9ed" r="2"/></g><g><circle cx="12" cy="12" fill="#e6e9ed" r="2"/></g><g><circle cx="49" cy="4" fill="#e6e9ed" r="2"/></g><g><circle cx="58" cy="9" fill="#e6e9ed" r="2"/></g><g><circle cx="60" cy="20" fill="#e6e9ed" r="2"/></g><g><circle cx="59" cy="34" fill="#e6e9ed" r="2"/></g><g><path d="m28.15 47c.44-1.72 1.99-3 3.85-3 1.26 0 2.37.59 3.1 1.5.57-.31 1.21-.5 1.9-.5 2.21 0 4 1.79 4 4 0 .05-.01.09-.01.14 1.73.44 3.01 1.99 3.01 3.86 0 2.21-1.79 4-4 4-.69 0-1.33-.19-1.9-.5-.73.91-1.84 1.5-3.1 1.5-1.86 0-3.41-1.28-3.86-3h1.86c1.66 0 3-1.34 3-3 0-.83-.34-1.58-.88-2.12s-1.29-.88-2.12-.88h-1l-1.15-1.15c-.54-.54-1.28-.85-2.05-.85-.22 0-.43.02-.63.08z" fill="#e6e9ed"/></g><g><path d="m44 53v9h-24v-7h11.14c.45 1.72 2 3 3.86 3 1.26 0 2.37-.59 3.1-1.5.57.31 1.21.5 1.9.5 2.21 0 4-1.79 4-4z" fill="#f0d0b4"/></g><g><path d="m28.17 47.08c.2-.06.41-.08.63-.08.77 0 1.51.31 2.05.85l1.15 1.15h1c.83 0 1.58.34 2.12.88s.88 1.29.88 2.12c0 1.66-1.34 3-3 3h-1.86-11.14-1c-2.76 0-5-2.24-5-5v-6.96c0-1.95.77-3.81 2.15-5.19 1.2-1.2 2.77-1.94 4.46-2.11l5.92-.59c.87-.09 1.59-.74 1.76-1.6l.47-2.34c.97.5 2.07.79 3.24.79 1.11 0 2.15-.25 3.07-.71l.55 2.2c.22.89 1.02 1.51 1.94 1.51h2.44l5.26-6.21c.48-.57.74-1.29.74-2.03 0-.5-.12-.99-.35-1.43l-1.65-3.24h-1.59l-.06.05c-.16-.21-.35-.4-.57-.55.8-1.21 1.22-2.63 1.22-4.09 0-1.99-.77-3.79-2.03-5.14h-.03c-.04-.27-.11-.52-.21-.77.71-.34 1.3-.88 1.7-1.55l.01.01c.51.1.98.33 1.37.68l7.07 12.32c.73 1.28 1.12 2.73 1.12 4.2 0 1.79-.57 3.53-1.62 4.97l-6.38 8.78v12c0-1.87-1.28-3.42-3.01-3.86 0-.05.01-.09.01-.14 0-2.21-1.79-4-4-4-.69 0-1.33.19-1.9.5-.73-.91-1.84-1.5-3.1-1.5-1.86 0-3.41 1.28-3.85 3z" fill="#f0d0b4"/></g><g><path d="m35.07 31.29c-.92.46-1.96.71-3.07.71-1.17 0-2.27-.29-3.24-.79-.63-.33-1.21-.76-1.71-1.26-.83-.83-1.44-1.85-1.77-3-.18-.62-.28-1.27-.28-1.95v-4-1.45c0-.98.22-1.94.62-2.8.43.16.89.25 1.38.25.69 0 1.33-.19 1.9-.5.73.91 1.84 1.5 3.1 1.5s2.37-.59 3.1-1.5c.57.31 1.21.5 1.9.5.73 0 1.41-.2 2-.54v4.54 4c0 .68-.1 1.33-.28 1.95-.55 1.91-1.89 3.48-3.65 4.34z" fill="#f0d0b4"/></g><g><path d="m25 25c0 .68.1 1.33.28 1.95l-.21.05h-1.07c-.83 0-1.58-.34-2.12-.88s-.88-1.29-.88-2.12c0-.99.48-1.87 1.22-2.41.5-.37 1.11-.59 1.78-.59h1z" fill="#f0d0b4"/></g></g><g><path d="m44.595 10.09-.119-.107c-.216-.195-.457-.357-.709-.496.147-.474.233-.971.233-1.487 0-2.757-2.243-5-5-5-1.241 0-2.422.465-3.336 1.298-.672-.246-1.363-.349-2.075-.278-.778-1.796-2.576-3.02-4.589-3.02-2.019 0-3.809 1.215-4.584 3.034-2.483.29-4.416 2.406-4.416 4.966 0 1.374.578 2.674 1.56 3.606-1.007 1.426-1.56 3.126-1.56 4.894 0 1.372.347 2.704.975 3.912-.599.7-.975 1.596-.975 2.588 0 2.206 1.794 4 4 4h.589c.619 1.522 1.692 2.811 3.051 3.699l-.331 1.655c-.087.434-.44.754-.881.798l-5.923.592c-1.909.191-3.708 1.043-5.064 2.4-1.574 1.574-2.441 3.668-2.441 5.895v6.961c0 3.309 2.691 6 6 6v7h26v-21.675l6.192-8.515c1.183-1.625 1.808-3.547 1.808-5.558 0-1.647-.434-3.274-1.254-4.704zm-19.664-4.093.977.042.198-.778c.339-1.331 1.53-2.261 2.894-2.261 1.408 0 2.642.999 2.933 2.376l.222 1.048 1.03-.293c.314-.089.573-.131.815-.131.481 0 .96.127 1.423.379l.731.398.524-.648c.58-.717 1.426-1.129 2.322-1.129 1.654 0 3 1.346 3 3 0 1.151-.653 2.182-1.704 2.69l-.823.398.323.855c.138.365.204.71.204 1.057 0 1.654-1.346 3-3 3-.481 0-.96-.127-1.423-.379l-.732-.398-.523.648c-.58.717-1.426 1.129-2.322 1.129s-1.742-.412-2.321-1.129l-.523-.648-.732.398c-.464.252-.943.379-1.424.379-1.654 0-3-1.346-3-3 0-.097.016-.189.029-.282l.102-.785-.588-.331c-.952-.535-1.543-1.532-1.543-2.602 0-1.654 1.346-3 2.931-3.003zm17.069 18.003c0 1.103-.897 2-2 2h-.069c.041-.328.069-.661.069-1v-3c1.103 0 2 .897 2 2zm-2.589 4h.589c2.124 0 3.849-1.669 3.976-3.761l.789 1.542c.154.301.235.638.235.976 0 .506-.181.998-.508 1.385l-4.956 5.858h-1.975c-.46 0-.858-.312-.971-.758l-.365-1.462c1.423-.889 2.547-2.209 3.186-3.78zm.589-8v-3.026c.655-.496 1.186-1.142 1.533-1.895.306.761.467 1.581.467 2.421 0 .961-.213 1.9-.618 2.761-.433-.161-.894-.261-1.382-.261zm-16-.452v.452c-.488 0-.95.1-1.382.261-.404-.861-.618-1.8-.618-2.761 0-.839.163-1.657.468-2.419.411.89 1.072 1.634 1.898 2.15-.239.747-.366 1.521-.366 2.317zm0 6.452c-1.103 0-2-.897-2-2s.897-2 2-2v3c0 .339.028.672.069 1zm2-1v-5.452c0-.557.087-1.1.246-1.624.248.038.496.076.754.076.566 0 1.123-.1 1.663-.298.915.833 2.095 1.298 3.337 1.298s2.422-.465 3.337-1.298c.54.198 1.097.298 1.663.298.342 0 .677-.035 1-.101v7.101c0 3.309-2.691 6-6 6s-6-2.691-6-6zm-5 36v-5h9.436c.785 1.798 2.561 3 4.564 3 1.242 0 2.422-.465 3.337-1.298.54.198 1.097.298 1.663.298 1.13 0 2.162-.391 3-1.026v4.026zm12-13h-.586l-.855-.856c-.52-.52-1.165-.865-1.864-1.03.552-.684 1.386-1.114 2.305-1.114.896 0 1.742.412 2.321 1.129l.524.648.731-.398c.464-.252.943-.379 1.424-.379 1.654 0 3 1.346 3.003 2.935l-.05.971.786.201c1.331.339 2.261 1.529 2.261 2.893 0 1.654-1.346 3-3 3-.481 0-.96-.127-1.423-.379l-.732-.398-.523.648c-.58.717-1.426 1.129-2.322 1.129-.868 0-1.664-.381-2.217-1h.217c2.206 0 4-1.794 4-4s-1.794-4-4-4zm16.575-16.366-6.575 9.041v8.352c-.318-.239-.659-.451-1.034-.611-.29-2.483-2.406-4.416-4.966-4.416-.566 0-1.123.1-1.664.298-.914-.833-2.095-1.298-3.336-1.298-2.103 0-3.945 1.332-4.659 3.282-.817.326-1.51.921-1.955 1.718h-4.386v-6h-2v6.586l-1.707 1.707 1.414 1.414 1.707-1.707h6.205l.472-.946c.325-.65.978-1.054 1.705-1.054.51 0 .988.198 1.349.558l1.441 1.442h1.414c1.103 0 2 .897 2 2s-.897 2-2 2h-14c-2.206 0-4-1.794-4-4v-6.961c0-1.693.659-3.284 1.855-4.48 1.031-1.031 2.398-1.679 3.85-1.824l5.923-.592c1.321-.132 2.383-1.096 2.643-2.396l.23-1.151c.787.258 1.626.404 2.499.404.828 0 1.627-.127 2.379-.361l.272 1.089c.334 1.337 1.532 2.272 2.911 2.272h2.902l5.556-6.566c.632-.748.98-1.698.98-2.677 0-.653-.157-1.305-.454-1.887l-1.935-3.779h-1.409c.523-1.12.798-2.342.798-3.591 0-2.029-.722-3.961-2.029-5.497.306-.225.585-.479.828-.761.078.043.158.082.228.136l6.984 12.166c.647 1.127.989 2.41.989 3.708 0 1.585-.493 3.101-1.425 4.382z"/><path d="m30 14c1.654 0 3-1.346 3-3h-2c0 .551-.448 1-1 1s-1-.449-1-1 .448-1 1-1v-2c-1.654 0-3 1.346-3 3s1.346 3 3 3z"/><path d="m37 12h2c0-1.654-1.346-3-3-3v2c.552 0 1 .449 1 1z"/><path d="m9 24c0-1.654-1.346-3-3-3s-3 1.346-3 3 1.346 3 3 3 3-1.346 3-3zm-4 0c0-.551.448-1 1-1s1 .449 1 1-.448 1-1 1-1-.449-1-1z"/><path d="m15 12c0-1.654-1.346-3-3-3s-3 1.346-3 3 1.346 3 3 3 3-1.346 3-3zm-3 1c-.552 0-1-.449-1-1s.448-1 1-1 1 .449 1 1-.448 1-1 1z"/><path d="m7 6c0-1.654-1.346-3-3-3s-3 1.346-3 3 1.346 3 3 3 3-1.346 3-3zm-4 0c0-.551.448-1 1-1s1 .449 1 1-.448 1-1 1-1-.449-1-1z"/><path d="m61 9c0-1.654-1.346-3-3-3s-3 1.346-3 3 1.346 3 3 3 3-1.346 3-3zm-4 0c0-.551.448-1 1-1s1 .449 1 1-.448 1-1 1-1-.449-1-1z"/><path d="m59 31c-1.654 0-3 1.346-3 3s1.346 3 3 3 3-1.346 3-3-1.346-3-3-3zm0 4c-.552 0-1-.449-1-1s.448-1 1-1 1 .449 1 1-.448 1-1 1z"/><path d="m8 30c-1.654 0-3 1.346-3 3s1.346 3 3 3 3-1.346 3-3-1.346-3-3-3zm0 4c-.552 0-1-.449-1-1s.448-1 1-1 1 .449 1 1-.448 1-1 1z"/><path d="m60 17c-1.654 0-3 1.346-3 3s1.346 3 3 3 3-1.346 3-3-1.346-3-3-3zm0 4c-.552 0-1-.449-1-1s.448-1 1-1 1 .449 1 1-.448 1-1 1z"/><path d="m49 7c1.654 0 3-1.346 3-3s-1.346-3-3-3-3 1.346-3 3 1.346 3 3 3zm0-4c.552 0 1 .449 1 1s-.448 1-1 1-1-.449-1-1 .448-1 1-1z"/></g></g></svg>