<svg id="flat" height="512" viewBox="0 0 512 512" width="512" xmlns="http://www.w3.org/2000/svg"><path d="m406.24 456a56.722 56.722 0 0 1 -1.7 13.82 24 24 0 0 1 -23.28 18.18h-122.52a23.982 23.982 0 0 1 -23.28-18.18 56.943 56.943 0 0 1 0-27.64l2.6-10.42 1.94-7.76-.2-.6q-1.17-3.51-1.98-7.1a74.1 74.1 0 0 1 0-32.6q.81-3.585 1.98-7.1l.2-.6-.2-.6q-1.17-3.51-1.98-7.1a74.1 74.1 0 0 1 0-32.6q.81-3.585 1.98-7.1l.2-.6-.2-.6q-1.17-3.51-1.98-7.1a74.1 74.1 0 0 1 0-32.6q.81-3.585 1.98-7.1l.2-.6v-112.54a68.018 68.018 0 0 1 34.26-59.04l.9-.51a41.372 41.372 0 0 0 20.84-35.91h48a41.363 41.363 0 0 0 20.84 35.91l.9.51a68.018 68.018 0 0 1 34.26 59.04v112.54l.2.6q1.17 3.51 1.98 7.1a74.1 74.1 0 0 1 0 32.6q-.81 3.585-1.98 7.1l-.2.6.2.6q1.17 3.51 1.98 7.1a74.1 74.1 0 0 1 0 32.6q-.81 3.585-1.98 7.1l-.2.6.2.6q1.17 3.51 1.98 7.1a74.1 74.1 0 0 1 0 32.6q-.81 3.585-1.98 7.1l-.2.6 1.94 7.76 2.6 10.42a56.722 56.722 0 0 1 1.7 13.82z" fill="#6cbae5"/><path d="m287.751 24h66.249a6 6 0 0 1 6 6v42a0 0 0 0 1 0 0h-78.249a0 0 0 0 1 0 0v-42a6 6 0 0 1 6-6z" fill="#ebebeb"/><g fill="#4799cf"><path d="m400.2 328.6q1.17 3.51 1.98 7.1l-32.91 9.4a179.222 179.222 0 0 1 -49.27 6.9c-2.77 0-5.59-.07-8.37-.2a8 8 0 0 1 .74-15.98 163.193 163.193 0 0 0 52.51-6.11l32.92-9.4a7.952 7.952 0 0 1 4.38-.01q-.81 3.585-1.98 7.1l-.2.6z"/><path d="m280.007 347.268a8.038 8.038 0 0 1 -1.872-.223c-2.467-.591-4.96-1.246-7.411-1.947l-32.924-9.406a8 8 0 0 1 4.4-15.384l32.923 9.406c2.232.638 4.5 1.234 6.744 1.772a8 8 0 0 1 -1.858 15.782z"/><path d="m400.2 376.6q1.17 3.51 1.98 7.1l-27.98 7.99a8 8 0 0 1 -4.4-15.38l28-8a7.952 7.952 0 0 1 4.38-.01q-.81 3.585-1.98 7.1l-.2.6z"/><path d="m320 400a179.323 179.323 0 0 1 -49.275-6.9l-32.925-9.408a8 8 0 0 1 4.4-15.384l32.923 9.406a163.356 163.356 0 0 0 67.758 4.676 8 8 0 1 1 2.242 15.841 179.775 179.775 0 0 1 -25.123 1.769z"/><path d="m400 424 1.94 7.76-32.67 9.34a179.222 179.222 0 0 1 -49.27 6.9 8 8 0 0 1 0-16 163.4 163.4 0 0 0 44.88-6.29l32.92-9.4a7.952 7.952 0 0 1 4.38-.01q-.81 3.585-1.98 7.1z"/><path d="m288.009 444.986a8.12 8.12 0 0 1 -1.5-.141c-5.3-1.007-10.606-2.268-15.781-3.746l-32.928-9.407a8 8 0 0 1 4.4-15.384l32.923 9.406c4.714 1.348 9.549 2.5 14.373 3.412a8 8 0 0 1 -1.485 15.86z"/></g><path d="m240 168h160v104h-160z" fill="#ebebeb"/><path d="m336 223.6a16 16 0 1 1 -28.49-9.98l8.49-10.62 4-5 12.49 15.62a15.875 15.875 0 0 1 3.51 9.98z" fill="#4ba2dc"/><path d="m328 223.6a15.993 15.993 0 0 1 -12 15.5 15.991 15.991 0 0 1 -8.49-25.48l8.49-10.62 8.49 10.62a15.875 15.875 0 0 1 3.51 9.98z" fill="#4799cf"/><path d="m362.6 152a7.983 7.983 0 0 1 -6.14-2.866 65.717 65.717 0 0 0 -13.95-12.511l-2.95-1.966a8 8 0 1 1 8.874-13.314l2.951 1.968a81.694 81.694 0 0 1 17.346 15.555 8 8 0 0 1 -6.131 13.134z" fill="#73c7f5"/><path d="m402.18 287.7-32.91 9.4a179.358 179.358 0 0 1 -98.54 0l-32.91-9.4-.02-.01a8 8 0 1 1 4.4-15.38l32.92 9.4a163.257 163.257 0 0 0 89.76 0l32.92-9.4a8 8 0 0 1 2.2-.31v8l.2.6q1.17 3.51 1.98 7.1z" fill="#4799cf"/><path d="m277.94 272-1.8 27.84-2.05 31.77-9.12 141.42a16 16 0 0 1 -11.6 14.36 23.969 23.969 0 0 1 -17.91-17.57 56.943 56.943 0 0 1 0-27.64l4.54-18.18-.2-.6a74.04 74.04 0 0 1 0-46.8l.2-.6-.2-.6a74.04 74.04 0 0 1 0-46.8l.2-.6-.2-.6a74.04 74.04 0 0 1 0-46.8l.2-.6 24-8z" fill="#4799cf"/><path d="m280 240-2.06 32h-37.94v-32z" fill="#dbdbdb"/><path d="m272 240-3.86 59.84-4.14 4.16h-152l-4.64-11.88-3.36-52.12z" fill="#ebebeb"/><path d="m268.14 299.84-11.17 173.19a16 16 0 0 1 -15.97 14.97h-106a16 16 0 0 1 -15.97-14.97l-11.67-180.91c13.53.98 14.64 7.88 30.24 7.88 16.8 0 16.8-8 33.6-8s16.8 8 33.59 8c16.81 0 16.81-8 33.61-8 15.4 0 16.68 6.73 29.74 7.84z" fill="#72c5f3"/><path d="m266.09 331.61-9.12 141.42a16 16 0 0 1 -15.97 14.97h-106a16 16 0 0 1 -15.97-14.97l-9.59-148.71c11.61 1.51 13.4 7.68 28.16 7.68 16.8 0 16.8-8 33.6-8s16.8 8 33.59 8c16.81 0 16.81-8 33.61-8 14.56 0 16.5 6.01 27.69 7.61z" fill="#6cbae5"/><path d="m146.315 408a8 8 0 0 1 -7.976-7.485l-2.322-36a8 8 0 1 1 15.966-1.03l2.323 36a8 8 0 0 1 -7.468 8.5c-.175.015-.35.015-.523.015z" fill="#72c5f3"/><path d="m148.9 448a8 8 0 0 1 -7.976-7.485l-.516-8a8 8 0 0 1 15.967-1.03l.516 8a8 8 0 0 1 -7.469 8.5c-.179.015-.354.015-.522.015z" fill="#72c5f3"/></svg>